<svg width="43" height="83" viewBox="0 0 43 83" fill="none" xmlns="http://www.w3.org/2000/svg"><g clip-path="url(#clip0_160_47)"><g clip-path="url(#clip1_160_47)"><path d="M0.716675 62.3504V49.0176H2.31656V60.9031H9.27722V62.3504H0.716675Z" fill="#00501E"></path><path d="M10.903 62.3504V49.0176H19.1124V50.465H12.5028V54.9251H17.8593V56.3724H12.5028V60.9059H19.2074V62.3533L10.903 62.3504Z" fill="#00501E"></path><path d="M20.7684 62.3504V49.0176H24.161L28.8081 61.3419H29.3434V49.0176H30.926V62.3504H27.532L22.9035 50.0103H22.3496V62.3519L20.7684 62.3504Z" fill="#00501E"></path><path d="M37.6943 62.6163C36.8044 62.6312 35.9215 62.4561 35.1046 62.1027C34.3629 61.7768 33.736 61.236 33.3047 60.5503C32.8673 59.8578 32.6482 58.9911 32.6472 57.9505V57.5505H34.2298V57.9505C34.2298 59.0554 34.5536 59.8774 35.201 60.4165C35.8484 60.9555 36.6795 61.2274 37.6943 61.2322C38.735 61.2322 39.5283 60.9972 40.074 60.5272C40.3356 60.3132 40.5453 60.0426 40.6874 59.7358C40.8294 59.4291 40.9001 59.0941 40.8941 58.7562C40.917 58.3303 40.7846 57.9106 40.5215 57.5749C40.2384 57.2554 39.8826 57.0087 39.4841 56.8556C38.9796 56.652 38.4595 56.4894 37.9289 56.3693L36.939 56.1218C36.2304 55.9428 35.5412 55.6941 34.8816 55.3794C34.3248 55.1208 33.843 54.7247 33.4817 54.2284C33.145 53.7488 32.9767 53.1359 32.9767 52.3897C32.9593 51.6997 33.1558 51.0213 33.5392 50.4474C33.9345 49.8844 34.4841 49.4478 35.1219 49.1899C35.8684 48.8872 36.6689 48.7404 37.4742 48.7583C38.3072 48.745 39.134 48.9037 39.9028 49.2245C40.5826 49.509 41.1674 49.9811 41.589 50.5855C42.0024 51.1898 42.2086 51.9485 42.2077 52.8616V53.6616H40.6251V52.8616C40.6251 52.2142 40.4889 51.6938 40.2165 51.3006C39.9383 50.9024 39.5468 50.597 39.0928 50.4244C38.5734 50.225 38.0204 50.1273 37.4641 50.1366C36.5884 50.1366 35.8834 50.3285 35.3492 50.7121C34.8149 51.0958 34.5483 51.6449 34.5492 52.3595C34.5305 52.7681 34.6512 53.1709 34.8917 53.5018C35.1505 53.8193 35.4849 54.0667 35.8643 54.2212C36.3498 54.4277 36.853 54.59 37.3677 54.7061L38.359 54.955C39.0772 55.101 39.7766 55.3278 40.4438 55.6312C41.0251 55.8888 41.5326 56.288 41.9199 56.7923C42.2883 57.2814 42.4724 57.9198 42.4724 58.7072C42.4888 59.4365 42.2831 60.1535 41.8825 60.7632C41.4666 61.3652 40.8891 61.8375 40.2165 62.1257C39.4202 62.4666 38.5604 62.6339 37.6943 62.6163V62.6163Z" fill="#00501E"></path><path d="M21.6091 31.5581C21.1861 31.5581 11.1479 31.4703 3.46936 23.7888C3.30678 23.6277 3.14852 23.4637 2.99313 23.2996C1.38462 21.6048 0.622081 19.5877 0.78322 17.4684C0.927095 15.598 1.79034 13.7867 3.20751 12.3652C4.62467 10.9437 6.44181 10.0833 8.31074 9.94089C10.2689 9.79702 12.1407 10.4329 13.7535 11.7997C13.9276 9.69342 14.7966 7.91513 16.2872 6.63753C17.7101 5.41603 19.5963 4.74414 21.6105 4.74414C23.6248 4.74414 25.511 5.41603 26.9339 6.63753C28.423 7.91657 29.2934 9.69342 29.4675 11.7997C31.0803 10.4329 32.9521 9.78551 34.9103 9.94089C36.7807 10.0848 38.592 10.948 40.0121 12.3652C41.4321 13.7823 42.2954 15.5995 42.4364 17.4684C42.5989 19.5877 41.835 21.6048 40.2279 23.3025C40.0725 23.4665 39.9142 23.6306 39.7517 23.7917C32.0716 31.4703 22.0335 31.5581 21.6091 31.5581ZM8.8661 11.5134C7.12521 11.5134 5.4908 12.3235 4.32829 13.4845C2.23923 15.575 1.28966 19.1978 4.14413 22.2148C4.28992 22.3693 4.4386 22.5222 4.59014 22.6738C11.8098 29.892 21.5141 29.9754 21.6105 29.9754C21.7069 29.9754 31.4314 29.8747 38.6323 22.6738C38.7848 22.5213 38.9335 22.3683 39.0783 22.2148C41.9328 19.1935 40.9832 15.575 38.8942 13.4845C36.8051 11.394 33.1809 10.4444 30.1595 13.3004C30.0051 13.4452 29.8521 13.5939 29.7006 13.7464C29.584 13.8629 29.4704 13.9823 29.3582 14.1017L27.8575 15.693L27.9165 13.509C27.9165 13.3421 27.9266 13.1766 27.9266 13.0083C27.9266 12.7925 27.9266 12.5767 27.918 12.3681C27.8029 8.21727 24.57 6.32532 21.6134 6.32532C18.6568 6.32532 15.4268 8.21583 15.3102 12.3681C15.3102 12.5796 15.3016 12.7997 15.3016 13.0083C15.3016 13.1723 15.3016 13.3335 15.3102 13.496L15.3692 15.693L13.8672 14.1104C13.7535 13.9895 13.6384 13.8687 13.5204 13.7492C13.3679 13.5967 13.2149 13.4481 13.0615 13.3032C11.7163 12.0271 10.2559 11.5134 8.8661 11.5134Z" fill="#00501E"></path><path d="M20.5947 23.1757H19.4437C19.4437 21.4621 17.7748 20.0665 15.726 20.0665C13.6772 20.0665 12.0083 21.4621 12.0083 23.1757H10.8573C10.8573 20.8262 13.0413 18.9155 15.726 18.9155C18.4107 18.9155 20.5947 20.8262 20.5947 23.1757Z" fill="#00501E"></path><path d="M32.2972 23.1283H31.1463C31.1463 21.4148 29.4787 20.0206 27.4285 20.0206C25.3783 20.0206 23.7108 21.4148 23.7108 23.1283H22.5598C22.5598 20.7803 24.7438 18.8696 27.4285 18.8696C30.1132 18.8696 32.2972 20.7803 32.2972 23.1283Z" fill="#00501E"></path><path d="M17.0509 23.2002C17.9655 23.2002 18.7069 22.4588 18.7069 21.5442C18.7069 20.6296 17.9655 19.8882 17.0509 19.8882C16.1363 19.8882 15.3949 20.6296 15.3949 21.5442C15.3949 22.4588 16.1363 23.2002 17.0509 23.2002Z" fill="#00501E"></path><path d="M28.6761 23.2002C29.5907 23.2002 30.3321 22.4588 30.3321 21.5442C30.3321 20.6296 29.5907 19.8882 28.6761 19.8882C27.7616 19.8882 27.0201 20.6296 27.0201 21.5442C27.0201 22.4588 27.7616 23.2002 28.6761 23.2002Z" fill="#00501E"></path><path d="M21.6048 27.407C20.248 27.407 18.9906 26.7092 18.4036 25.6302L19.4107 25.0806C19.8006 25.7999 20.6595 26.256 21.6019 26.256C22.5443 26.256 23.4046 25.7942 23.7931 25.0806L24.8002 25.6302C24.219 26.7092 22.9658 27.407 21.6048 27.407Z" fill="#00501E"></path><path d="M42.2319 43.3619C39.3478 44.7124 36.0968 45.0666 32.9894 44.369C30.4174 43.7987 28.0562 42.5205 26.1727 40.6786C27.3651 41.1728 28.6442 41.4242 29.935 41.4181C32.1668 41.4186 34.3435 40.7247 36.1633 39.4327L35.2396 38.1464C32.7492 39.9391 29.3235 40.3707 26.6201 39.1492C23.9527 37.9479 22.4477 35.3768 22.3513 31.8908V30.7671H20.7687V30.9656V31.8821C20.6766 35.3725 19.1688 37.9464 16.4985 39.1492C13.7951 40.3678 10.3637 39.942 7.87899 38.1421L6.95676 39.4283C8.77537 40.7209 10.951 41.4158 13.1822 41.4167C14.473 41.423 15.7521 41.1716 16.9445 40.6772C15.0615 42.519 12.7007 43.7973 10.1292 44.3676C7.02187 45.0653 3.77081 44.711 0.886686 43.3604L0.211914 44.792C2.32999 45.7862 4.64142 46.3005 6.98122 46.2984C8.15684 46.2988 9.32889 46.169 10.4759 45.9113C13.9956 45.13 17.1399 43.1627 19.3818 40.3391L19.3918 40.3261C19.9179 39.636 20.3798 38.8991 20.7716 38.1248V46.2696H22.3542V38.1363C22.7455 38.9068 23.2058 39.6403 23.7297 40.3276L23.7397 40.3405C25.9814 43.1637 29.125 45.131 32.6441 45.9128C33.7912 46.1704 34.9632 46.3002 36.1388 46.2998C38.4791 46.302 40.791 45.7876 42.9096 44.7934L42.2319 43.3619Z" fill="#00501E"></path></g></g><path d="M1.12 78.0469V68.2469H7.042V69.3109H2.296V72.6009H6.664V73.6649H2.296V78.0469H1.12ZM8.68055 78.0469V68.2469H12.6425C13.2492 68.2469 13.7812 68.3542 14.2385 68.5689C14.7052 68.7742 15.0692 69.0729 15.3305 69.4649C15.5919 69.8475 15.7225 70.3095 15.7225 70.8509V71.0049C15.7225 71.6489 15.5685 72.1575 15.2605 72.5309C14.9525 72.9042 14.5885 73.1562 14.1685 73.2869V73.4829C14.5045 73.4922 14.7799 73.6042 14.9945 73.8189C15.2185 74.0242 15.3305 74.3369 15.3305 74.7569V78.0469H14.1685V74.8969C14.1685 74.6169 14.0892 74.4022 13.9305 74.2529C13.7812 74.1035 13.5525 74.0289 13.2445 74.0289H9.85655V78.0469H8.68055ZM9.85655 72.9649H12.5305C13.1745 72.9649 13.6692 72.8109 14.0145 72.5029C14.3692 72.1855 14.5465 71.7469 14.5465 71.1869V71.0889C14.5465 70.5289 14.3739 70.0949 14.0285 69.7869C13.6832 69.4695 13.1839 69.3109 12.5305 69.3109H9.85655V72.9649ZM17.5126 78.0469V68.2469H23.5466V69.3109H18.6886V72.5869H23.1546V73.6509H18.6886V76.9829H23.6166V78.0469H17.5126ZM25.4013 78.0469V68.2469H27.6833L31.0993 77.3049H31.2812V68.2469H32.4433V78.0469H30.1613L26.7593 68.9749H26.5633V78.0469H25.4013ZM37.9601 78.2429C37.2508 78.2429 36.6161 78.1169 36.0561 77.8649C35.4961 77.6129 35.0528 77.2349 34.7261 76.7309C34.4088 76.2175 34.2501 75.5782 34.2501 74.8129V74.5189H35.4121V74.8129C35.4121 75.6249 35.6501 76.2315 36.1261 76.6329C36.6021 77.0249 37.2135 77.2209 37.9601 77.2209C38.7255 77.2209 39.3088 77.0482 39.7101 76.7029C40.1115 76.3575 40.3121 75.9235 40.3121 75.4009C40.3121 75.0369 40.2188 74.7475 40.0321 74.5329C39.8548 74.3182 39.6028 74.1455 39.2761 74.0149C38.9495 73.8749 38.5668 73.7535 38.1281 73.6509L37.4001 73.4689C36.8308 73.3195 36.3268 73.1375 35.8881 72.9229C35.4495 72.7082 35.1041 72.4282 34.8521 72.0829C34.6095 71.7282 34.4881 71.2755 34.4881 70.7249C34.4881 70.1742 34.6235 69.6982 34.8941 69.2969C35.1741 68.8955 35.5615 68.5875 36.0561 68.3729C36.5601 68.1582 37.1388 68.0509 37.7921 68.0509C38.4548 68.0509 39.0475 68.1675 39.5701 68.4009C40.1021 68.6249 40.5175 68.9609 40.8161 69.4089C41.1241 69.8475 41.2781 70.4029 41.2781 71.0749V71.6629H40.1161V71.0749C40.1161 70.5989 40.0135 70.2162 39.8081 69.9269C39.6121 69.6375 39.3368 69.4229 38.9821 69.2829C38.6368 69.1429 38.2401 69.0729 37.7921 69.0729C37.1481 69.0729 36.6301 69.2175 36.2381 69.5069C35.8461 69.7869 35.6501 70.1882 35.6501 70.7109C35.6501 71.0562 35.7341 71.3362 35.9021 71.5509C36.0701 71.7655 36.3081 71.9429 36.6161 72.0829C36.9241 72.2135 37.2928 72.3302 37.7221 72.4329L38.4501 72.6149C39.0195 72.7362 39.5281 72.9042 39.9761 73.1189C40.4335 73.3242 40.7975 73.6089 41.0681 73.9729C41.3388 74.3275 41.4741 74.7942 41.4741 75.3729C41.4741 75.9515 41.3295 76.4555 41.0401 76.8849C40.7508 77.3142 40.3401 77.6502 39.8081 77.8929C39.2855 78.1262 38.6695 78.2429 37.9601 78.2429Z" fill="#00501E"></path><defs><clipPath id="clip0_160_47"><rect width="42.6977" height="63.2558" fill="white" transform="translate(0.208984)"></rect></clipPath><clipPath id="clip1_160_47"><rect width="42.6977" height="57.8736" fill="white" transform="translate(0.208984 4.74414)"></rect></clipPath></defs></svg>