<svg width="947" height="218" viewBox="0 0 947 218" fill="none" xmlns="http://www.w3.org/2000/svg">
	<path d="M47.3192 45.2065C59.0024 44.9177 70.5637 47.6657 80.8975 53.1875C91.2313 58.7093 99.992 66.8205 106.343 76.7456C108.421 74.275 110.292 71.8571 112.37 69.5968C115.633 66.3604 119.542 63.8671 123.835 62.2841C128.129 60.7011 132.707 60.065 137.264 60.4184C141.82 60.7719 146.248 62.1067 150.253 64.3334C154.258 66.56 157.746 69.627 160.483 73.3289C166.919 83.5949 172.15 94.5852 176.07 106.077C178.969 113.915 182.443 121.523 186.462 128.838C187.145 130.348 188.243 131.627 189.625 132.524C191.006 133.421 192.614 133.898 194.255 133.898C195.897 133.898 197.504 133.421 198.885 132.524C200.267 131.627 201.365 130.348 202.049 128.838C205.418 122.673 207.72 115.971 208.855 109.021C210.323 99.1132 213.451 89.5315 218.104 80.688C224.664 68.9657 234.422 59.4032 246.213 53.1439C256.297 47.612 267.633 44.8398 279.102 45.1014V66.9159C251.252 68.2301 233.951 90.2023 234.574 109.809C235.198 129.416 252.395 149.654 279.102 150.6V171.626C262.943 175.095 234.158 162.374 221.221 141.506C218.569 146.059 214.83 149.865 210.345 152.575C205.86 155.285 200.774 156.811 195.554 157.013C176.486 158.432 166.458 148.76 160.327 134.883C154.819 122.425 150.507 109.546 145.571 96.9306C144.488 94.1173 143.093 91.4371 141.414 88.9408C136.894 82.5278 129.152 83.6843 123.905 91.3063C119.06 99.1445 116.089 108.018 115.227 117.221C112.976 131.02 106.14 143.629 95.8474 152.965C86.6095 162.025 75.0281 168.257 62.439 170.943C57.659 171.941 52.6188 172.152 47.2152 172.782V150.284C53.1997 150.474 59.158 149.404 64.7122 147.142C70.2664 144.879 75.2959 141.475 79.4813 137.143C83.9858 133.023 87.4496 127.871 89.5829 122.119C91.7162 116.366 92.4569 110.181 91.7432 104.08C89.5609 87.4164 74.233 68.1249 47.1112 66.7056L47.3192 45.2065Z" fill="#02F3A2"/>
	<path d="M304.113 22.3928V195.332H22.5792V22.3928H304.113ZM326.693 0H0V217.778H326.693V0Z" fill="#02F3A2"/>
	<path d="M304.112 22.4044V195.433H22.5792V22.4044H304.112ZM326.692 0H0V217.89H326.692V0Z" fill="#02F3A2"/>
	<path fill-rule="evenodd" clip-rule="evenodd" d="M871.747 163.673V94.9958L927.632 159.842C928.668 161.049 929.957 162.017 931.41 162.679C932.863 163.341 934.445 163.68 936.044 163.673C937.334 163.658 938.611 163.415 939.815 162.955C941.95 162.21 943.782 160.798 945.037 158.932C946.329 157.111 947.005 154.931 946.97 152.706V54.4789H924.974V123.108L869.039 58.2624C867.56 56.5759 865.598 55.3749 863.414 54.8189C861.229 54.2629 858.926 54.3782 856.809 55.1495C854.71 55.9351 852.904 57.3391 851.636 59.1724C850.314 60.9814 849.618 63.1655 849.653 65.3983V163.673H871.747ZM629.689 115.541C634.692 118.52 640.434 120.062 646.271 119.995H680.983C682.433 119.97 683.873 120.242 685.212 120.794C686.551 121.347 687.761 122.167 688.766 123.203C690.287 124.733 691.318 126.672 691.733 128.78C692.147 130.887 691.925 133.068 691.094 135.051C690.263 137.034 688.861 138.731 687.063 139.928C685.264 141.126 683.15 141.772 680.983 141.786H614.848V163.672H681.224C687.061 163.74 692.803 162.198 697.806 159.218C702.74 156.333 706.863 152.265 709.795 147.389C712.739 142.388 714.289 136.703 714.289 130.914C714.289 125.125 712.739 119.44 709.795 114.439C706.881 109.536 702.755 105.449 697.806 102.562C692.803 99.5825 687.061 98.0404 681.224 98.108H646.271C644.766 98.2069 643.256 97.9985 641.835 97.4957C640.414 96.993 639.112 96.2066 638.01 95.1852C636.908 94.1637 636.03 92.929 635.429 91.5576C634.829 90.1862 634.519 88.7074 634.519 87.2126C634.519 85.7177 634.829 84.2388 635.429 82.8674C636.03 81.496 636.908 80.2614 638.01 79.2399C639.112 78.2185 640.414 77.432 641.835 76.9292C643.256 76.4265 644.766 76.2182 646.271 76.3171H710.569V54.4782H646.271C640.439 54.3961 634.697 55.9216 629.689 58.8843C624.74 61.7714 620.614 65.8588 617.7 70.7616C614.757 75.7626 613.206 81.4477 613.206 87.2365C613.206 93.0253 614.757 98.7103 617.7 103.711C620.621 108.597 624.746 112.667 629.689 115.541ZM392.849 163.673C389.913 163.673 387.097 162.518 385.021 160.461C382.945 158.404 381.779 155.614 381.779 152.706V65.3983C381.792 62.4979 382.963 59.7207 385.038 57.6743C387.113 55.6279 389.921 54.4789 392.849 54.4789H444.239C450.086 54.403 455.841 55.9278 460.87 58.885C465.828 61.7602 469.957 65.8503 472.859 70.7623C475.866 75.7189 477.423 81.4065 477.355 87.1893C477.423 95.2897 474.381 103.113 468.847 109.076C471.552 111.96 473.684 115.323 475.131 118.99C476.633 122.788 477.388 126.836 477.355 130.915C477.415 136.712 475.859 142.412 472.859 147.39C469.938 152.275 465.813 156.345 460.87 159.219C455.845 162.191 450.09 163.732 444.239 163.673H392.849ZM403.872 76.3178V98.1087H444.239C445.685 98.1338 447.121 97.8665 448.46 97.323C449.798 96.7795 451.01 95.9713 452.022 94.9478C453.05 93.9334 453.866 92.7279 454.422 91.4006C454.978 90.0733 455.265 88.6504 455.265 87.2133C455.265 85.7761 454.978 84.3531 454.422 83.0258C453.866 81.6985 453.05 80.493 452.022 79.4786C451.01 78.4551 449.798 77.6471 448.46 77.1036C447.121 76.5601 445.685 76.2927 444.239 76.3178H403.872ZM403.872 119.995V141.786H444.239C445.685 141.811 447.121 141.544 448.46 141.001C449.798 140.457 451.01 139.649 452.022 138.625C453.56 137.098 454.606 135.155 455.03 133.039C455.453 130.924 455.235 128.732 454.402 126.739C453.57 124.746 452.16 123.043 450.352 121.842C448.543 120.642 446.416 120 444.239 119.995H403.872ZM525.846 163.674C519.994 163.733 514.24 162.191 509.216 159.22C504.305 156.32 500.202 152.255 497.275 147.39C494.275 142.413 492.719 136.712 492.778 130.915V87.1899C492.71 81.4071 494.267 75.7195 497.275 70.7629C500.187 65.8749 504.293 61.7906 509.216 58.8856C514.244 55.9283 519.998 54.4036 525.846 54.4795H564.521C570.368 54.4036 576.123 55.9283 581.152 58.8856C586.11 61.7608 590.238 65.8509 593.141 70.7629C596.148 75.7195 597.705 81.4071 597.636 87.1899V130.724C597.696 136.521 596.141 142.221 593.141 147.199C590.22 152.084 586.095 156.154 581.152 159.028C576.127 162 570.372 163.541 564.521 163.482L525.846 163.674ZM514.871 87.0462V130.724C514.859 132.155 515.134 133.574 515.68 134.899C516.227 136.224 517.035 137.428 518.057 138.44C519.079 139.452 520.294 140.252 521.631 140.794C522.968 141.336 524.401 141.608 525.846 141.595H564.521C565.967 141.62 567.403 141.353 568.742 140.81C570.08 140.266 571.292 139.458 572.304 138.434C573.353 137.441 574.183 136.243 574.74 134.916C575.298 133.589 575.571 132.161 575.543 130.724V86.9983C575.543 85.5666 575.258 84.149 574.704 82.8269C574.149 81.5047 573.337 80.3041 572.312 79.294C571.288 78.2839 570.073 77.4841 568.736 76.9406C567.399 76.3971 565.966 76.1205 564.521 76.1268H525.846C524.401 76.114 522.968 76.3865 521.631 76.9283C520.294 77.4702 519.079 78.2704 518.057 79.2825C517.035 80.2945 516.227 81.4982 515.68 82.8229C515.134 84.1477 514.859 85.5671 514.871 86.9983V87.0462ZM762.289 163.673C756.453 163.733 750.713 162.192 745.707 159.219C740.783 156.321 736.663 152.256 733.718 147.39C730.753 142.4 729.216 136.705 729.27 130.915V87.1895C729.21 81.4142 730.748 75.7328 733.718 70.7626C736.649 65.8725 740.771 61.7888 745.707 58.8853C750.717 55.9273 756.457 54.4021 762.289 54.4791H800.964C806.811 54.4082 812.564 55.9326 817.594 58.8853C822.531 61.7888 826.653 65.8725 829.584 70.7626C832.592 75.7192 834.148 81.4068 834.08 87.1895V130.723C834.139 136.52 832.584 142.221 829.584 147.198C826.639 152.065 822.518 156.13 817.594 159.028C812.568 161.995 806.815 163.536 800.964 163.482L762.289 163.673ZM751.315 87.0459V130.723C751.299 132.159 751.578 133.583 752.135 134.909C752.691 136.234 753.515 137.434 754.554 138.434C755.556 139.458 756.759 140.268 758.09 140.812C759.42 141.355 760.85 141.622 762.289 141.595H800.964C802.409 141.612 803.843 141.341 805.18 140.798C806.517 140.255 807.73 139.451 808.748 138.434C809.796 137.441 810.626 136.243 811.184 134.915C811.741 133.588 812.015 132.161 811.987 130.723V86.9979C812.012 85.561 811.737 84.1346 811.18 82.8078C810.622 81.481 809.794 80.2826 808.748 79.2874C807.73 78.2706 806.517 77.4667 805.18 76.9237C803.843 76.3807 802.409 76.1097 800.964 76.1265H762.289C760.85 76.0994 759.42 76.3661 758.09 76.9099C756.759 77.4536 755.556 78.263 754.554 79.2874C753.528 80.328 752.728 81.5662 752.204 82.9255C751.68 84.2847 751.443 85.736 751.508 87.1895L751.315 87.0459Z" fill="#09182C"/>
	</svg>
	