<svg width="110" height="24" viewBox="0 0 110 24" xmlns="http://www.w3.org/2000/svg">
<g>
	<path fill="#02F3A2" d="M4.99455 4.9822C6.30645 4.95037 7.60467 5.25321 8.76506 5.86174C9.92544 6.47027 10.9092 7.36415 11.6223 8.45794C11.8557 8.18567 12.0657 7.91921 12.2991 7.67011C12.6655 7.31345 13.1044 7.03867 13.5865 6.86422C14.0686 6.68977 14.5828 6.61967 15.0944 6.65862C15.606 6.69757 16.1033 6.84468 16.553 7.09006C17.0027 7.33545 17.3943 7.67344 17.7017 8.0814C18.4244 9.21276 19.0118 10.4239 19.452 11.6904C19.7775 12.5542 20.1676 13.3926 20.6188 14.1987C20.6956 14.3651 20.8189 14.5061 20.974 14.6049C21.1291 14.7038 21.3096 14.7563 21.494 14.7563C21.6783 14.7563 21.8587 14.7038 22.0139 14.6049C22.169 14.5061 22.2923 14.3651 22.3691 14.1987C22.7475 13.5193 23.0059 12.7807 23.1334 12.0148C23.2982 10.9229 23.6495 9.867 24.1719 8.89241C24.9085 7.60056 26.0044 6.54673 27.3283 5.85693C28.4606 5.2473 29.7336 4.94179 31.0214 4.97062V7.37467C27.8942 7.51949 25.9514 9.94093 26.0214 12.1017C26.0914 14.2624 28.0225 16.4927 31.0214 16.597V18.9141C29.2069 19.2965 25.9747 17.8946 24.522 15.5948C24.2242 16.0966 23.8043 16.5161 23.3007 16.8147C22.7971 17.1133 22.226 17.2814 21.6398 17.3037C19.4986 17.4601 18.3726 16.3942 17.6842 14.8649C17.0657 13.492 16.5815 12.0727 16.0272 10.6824C15.9056 10.3724 15.749 10.077 15.5605 9.8019C15.0529 9.09516 14.1836 9.22261 13.5943 10.0626C13.0503 10.9264 12.7167 11.9042 12.62 12.9185C12.3672 14.4392 11.5995 15.8287 10.4438 16.8576C9.40646 17.8561 8.10597 18.5429 6.69235 18.8388C6.1556 18.9489 5.58964 18.9721 4.98287 19.0416V16.5622C5.65487 16.5831 6.32392 16.4652 6.9476 16.2159C7.57129 15.9666 8.13605 15.5914 8.60602 15.114C9.11184 14.6599 9.50079 14.0921 9.74034 13.4582C9.97988 12.8243 10.0631 12.1426 9.98291 11.4703C9.73787 9.6339 8.0167 7.5079 4.97119 7.35149L4.99455 4.9822Z"/>
	<path fill="#02F3A2" d="M33.553 2.46778V21.5264H2.49119V2.46778H33.553ZM36.0443 0H0V24H36.0443V0Z"/>
	<path fill="#09182C" d="M43.0396 13.2082C42.6853 13.2082 42.3455 13.0684 42.0949 12.8196C41.8443 12.5708 41.7036 12.2334 41.7036 11.8816V1.32111C41.7052 0.970283 41.8466 0.634362 42.097 0.386833C42.3474 0.139303 42.6863 0.00032343 43.0396 0.000326775H49.2415C49.9471 -0.008854 50.6417 0.175577 51.2485 0.533282C51.8469 0.881056 52.3452 1.37579 52.6954 1.96993C53.0584 2.56947 53.2463 3.25742 53.238 3.95689C53.2462 4.9367 52.8792 5.88299 52.2112 6.60425C52.5377 6.95308 52.7949 7.35988 52.9696 7.80337C53.1509 8.26279 53.242 8.75241 53.238 9.24581C53.2452 9.94698 53.0574 10.6365 52.6954 11.2386C52.3429 11.8295 51.8451 12.3218 51.2485 12.6694C50.6422 13.0289 49.9477 13.2153 49.2415 13.2082H43.0396ZM44.3699 2.64191V5.27767H49.2415C49.416 5.28071 49.5893 5.24837 49.7509 5.18263C49.9124 5.11689 50.0586 5.01913 50.1808 4.89534C50.3048 4.77263 50.4032 4.62682 50.4704 4.46628C50.5375 4.30574 50.5721 4.13362 50.5721 3.95979C50.5721 3.78596 50.5375 3.61382 50.4704 3.45328C50.4032 3.29274 50.3048 3.14693 50.1808 3.02422C50.0586 2.90043 49.9124 2.80269 49.7509 2.73695C49.5893 2.67121 49.416 2.63887 49.2415 2.64191H44.3699ZM44.3699 7.92503V10.5608H49.2415C49.416 10.5638 49.5893 10.5315 49.7509 10.4658C49.9124 10.4 50.0586 10.3023 50.1808 10.1785C50.3663 9.99376 50.4926 9.75864 50.5437 9.50277C50.5949 9.2469 50.5685 8.98173 50.468 8.7407C50.3676 8.49967 50.1975 8.2936 49.9792 8.14844C49.7609 8.00327 49.5042 7.92554 49.2415 7.92503H44.3699Z"/>
	<path fill="#09182C" d="M59.0895 13.2082C58.3834 13.2153 57.6889 13.0289 57.0826 12.6694C56.49 12.3187 55.9948 11.8269 55.6415 11.2386C55.2795 10.6365 55.0917 9.94698 55.0989 9.24581V3.95689C55.0907 3.25742 55.2786 2.56947 55.6415 1.96993C55.993 1.37869 56.4885 0.884663 57.0826 0.533282C57.6894 0.175577 58.3839 -0.008854 59.0895 0.000326775H63.757C64.4626 -0.008854 65.1572 0.175577 65.764 0.533282C66.3624 0.881056 66.8607 1.37579 67.2109 1.96993C67.5739 2.56947 67.7617 3.25742 67.7535 3.95689V9.22264C67.7607 9.9238 67.5729 10.6133 67.2109 11.2154C66.8584 11.8063 66.3606 12.2987 65.764 12.6462C65.1577 13.0057 64.4632 13.1921 63.757 13.185L59.0895 13.2082ZM57.7651 3.93951V9.22264C57.7636 9.39575 57.7968 9.56744 57.8628 9.72768C57.9288 9.88792 58.0263 10.0335 58.1496 10.1559C58.2729 10.2783 58.4195 10.3751 58.5809 10.4407C58.7423 10.5062 58.9152 10.5392 59.0895 10.5376H63.757C63.9315 10.5407 64.1048 10.5083 64.2663 10.4426C64.4279 10.3768 64.5741 10.2791 64.6963 10.1553C64.8229 10.0351 64.923 9.89021 64.9903 9.72968C65.0576 9.56914 65.0906 9.39649 65.0872 9.22264V3.93371C65.0872 3.76054 65.0528 3.58907 64.9859 3.42915C64.919 3.26923 64.8209 3.12401 64.6973 3.00182C64.5737 2.87964 64.427 2.78291 64.2656 2.71716C64.1043 2.65142 63.9314 2.61797 63.757 2.61873H59.0895C58.9152 2.61718 58.7423 2.65014 58.5809 2.71568C58.4195 2.78122 58.2729 2.87801 58.1496 3.00043C58.0263 3.12285 57.9288 3.26843 57.8628 3.42867C57.7968 3.58891 57.7636 3.7606 57.7651 3.93371V3.93951Z"/>
	<path fill="#09182C" d="M73.6232 7.92509C72.9188 7.93326 72.2259 7.74672 71.622 7.38633C71.0255 7.03874 70.5276 6.5464 70.1751 5.95548C69.82 5.35058 69.6328 4.66294 69.6328 3.96274C69.6328 3.26254 69.82 2.57488 70.1751 1.96998C70.5269 1.37695 71.0248 0.882544 71.622 0.533335C72.2265 0.174978 72.9193 -0.0095446 73.6232 0.000380278H81.3829V2.64196H73.6232C73.4415 2.62999 73.2593 2.65519 73.0878 2.716C72.9163 2.77681 72.7592 2.87195 72.6262 2.9955C72.4933 3.11905 72.3873 3.26838 72.3148 3.43426C72.2423 3.60014 72.205 3.77903 72.205 3.95984C72.205 4.14065 72.2423 4.31953 72.3148 4.48541C72.3873 4.65129 72.4933 4.80064 72.6262 4.92419C72.7592 5.04774 72.9163 5.14286 73.0878 5.20367C73.2593 5.26448 73.4415 5.28969 73.6232 5.27772H77.8414C78.5459 5.26955 79.2388 5.45607 79.8426 5.81646C80.4399 6.16567 80.9378 6.66007 81.2895 7.25311C81.6447 7.85801 81.8319 8.54567 81.8319 9.24587C81.8319 9.94606 81.6447 10.6337 81.2895 11.2386C80.9356 11.8285 80.4381 12.3205 79.8426 12.6695C79.2388 13.0299 78.5459 13.2164 77.8414 13.2082H69.8309V10.5608H77.8123C78.0738 10.5592 78.329 10.4811 78.5461 10.3362C78.7631 10.1913 78.9323 9.98614 79.0326 9.74629C79.1328 9.50644 79.1596 9.24258 79.1096 8.98769C79.0597 8.7328 78.9351 8.49819 78.7516 8.3132C78.6304 8.1878 78.4844 8.08861 78.3227 8.02182C78.1611 7.95504 77.9873 7.92211 77.8123 7.92509H73.6232Z"/>
	<path fill="#09182C" d="M87.6251 13.2082C86.9208 13.2154 86.2281 13.029 85.6239 12.6694C85.0297 12.3189 84.5325 11.8272 84.1771 11.2386C83.8193 10.635 83.6338 9.94614 83.6403 9.24582V3.9569C83.6331 3.25832 83.8187 2.57113 84.1771 1.96994C84.5308 1.37845 85.0282 0.884497 85.6239 0.533291C86.2286 0.175498 86.9213 -0.00898073 87.6251 0.000336227H92.2926C92.9982 -0.00824496 93.6925 0.176144 94.2996 0.533291C94.8953 0.884497 95.3928 1.37845 95.7465 1.96994C96.1095 2.56948 96.2973 3.25743 96.2891 3.9569V9.22265C96.2963 9.92381 96.1085 10.6133 95.7465 11.2154C95.3911 11.804 94.8938 12.2957 94.2996 12.6463C93.693 13.0052 92.9987 13.1915 92.2926 13.185L87.6251 13.2082ZM86.3007 3.93952V9.22265C86.2988 9.3963 86.3325 9.56853 86.3997 9.72887C86.4669 9.88921 86.5662 10.0343 86.6917 10.1553C86.8125 10.2792 86.9578 10.3771 87.1183 10.4429C87.2789 10.5086 87.4515 10.5409 87.6251 10.5376H92.2926C92.467 10.5397 92.64 10.5069 92.8014 10.4412C92.9627 10.3755 93.1091 10.2783 93.2319 10.1553C93.3585 10.0351 93.4586 9.89022 93.5259 9.72968C93.5932 9.56915 93.6262 9.39649 93.6228 9.22265V3.93372C93.6258 3.75992 93.5927 3.58738 93.5254 3.4269C93.4581 3.26641 93.3582 3.12145 93.2319 3.00107C93.1091 2.87809 92.9627 2.78086 92.8014 2.71518C92.64 2.6495 92.467 2.61671 92.2926 2.61874H87.6251C87.4515 2.61547 87.2789 2.64772 87.1183 2.7135C86.9578 2.77927 86.8125 2.87716 86.6917 3.00107C86.5678 3.12695 86.4712 3.27672 86.408 3.44113C86.3448 3.60554 86.3162 3.78109 86.3241 3.9569L86.3007 3.93952Z"/>
	<path fill="#09182C" d="M100.834 4.9016V13.2086H98.1681V1.32157C98.1639 1.05149 98.2478 0.787307 98.4073 0.568497C98.5604 0.346746 98.7784 0.176919 99.0317 0.0818952C99.2871 -0.0113941 99.5651 -0.0253452 99.8287 0.0419063C100.092 0.109158 100.329 0.254428 100.508 0.45843L107.258 8.30203V0.000786052H109.913V11.882C109.917 12.1512 109.835 12.4149 109.679 12.6351C109.528 12.8608 109.307 13.0316 109.049 13.1217C108.904 13.1774 108.75 13.2068 108.594 13.2086C108.401 13.2095 108.21 13.1685 108.035 13.0884C107.859 13.0084 107.704 12.8912 107.579 12.7452L100.834 4.9016Z"/>
	<path fill="#09182C" d="M42.9172 22.0002V23.9987H41.7037V19.7989C41.7006 19.4811 41.7853 19.1685 41.9487 18.8952C42.1097 18.6271 42.3365 18.4039 42.608 18.2464C42.8815 18.0852 43.1942 18.0011 43.5123 18.0031H45.5251C45.8472 17.9989 46.1642 18.0831 46.4411 18.2464C46.7109 18.404 46.9358 18.6273 47.0946 18.8952C47.2579 19.1685 47.3427 19.4811 47.3396 19.7989V20.2044C47.3416 20.5202 47.2569 20.8307 47.0946 21.1023C46.9359 21.3718 46.7111 21.597 46.4411 21.7569C46.1642 21.9201 45.8472 22.0043 45.5251 22.0002H42.9172ZM42.9172 19.7989V20.8068H45.5251C45.6052 20.8089 45.6849 20.7945 45.7592 20.7646C45.8335 20.7347 45.9008 20.6899 45.9568 20.6331C46.0127 20.5787 46.057 20.5138 46.087 20.4421C46.1171 20.3705 46.1324 20.2936 46.1319 20.216V19.8105C46.1332 19.7319 46.1183 19.6538 46.0882 19.5811C46.0581 19.5084 46.0134 19.4426 45.9568 19.3876C45.9008 19.3307 45.8335 19.2859 45.7592 19.256C45.6849 19.2261 45.6052 19.2118 45.5251 19.2138H43.5123C43.3576 19.2138 43.2092 19.2748 43.0997 19.3835C42.9903 19.4921 42.9289 19.6394 42.9289 19.7931L42.9172 19.7989Z"/>
	<path fill="#09182C" d="M52.0364 22.0021V24.0006H50.8287V19.8008C50.8256 19.483 50.9103 19.1704 51.0737 18.8971C51.2343 18.6306 51.4588 18.4077 51.7271 18.2483C52.0024 18.086 52.3172 18.0019 52.6373 18.005H54.6501C54.9702 18.0019 55.285 18.086 55.5603 18.2483C55.833 18.4041 56.0602 18.6277 56.2196 18.8971C56.383 19.1704 56.4677 19.483 56.4646 19.8008V20.2063C56.4706 20.5643 56.3624 20.9151 56.1554 21.2084C55.9572 21.5 55.6773 21.7276 55.3503 21.863L56.3946 24.0006H55.0527L54.0725 22.0021H52.0364ZM52.0364 19.8008V20.8087H54.6501C54.7293 20.81 54.8079 20.7952 54.8811 20.7653C54.9543 20.7354 55.0206 20.6911 55.076 20.6349C55.1329 20.5811 55.1783 20.5164 55.2093 20.4447C55.2404 20.3731 55.2566 20.2959 55.2569 20.2179V19.8123C55.2574 19.7333 55.2416 19.6551 55.2105 19.5823C55.1794 19.5096 55.1336 19.444 55.076 19.3895C55.0206 19.3333 54.9543 19.289 54.8811 19.2591C54.8079 19.2292 54.7293 19.2144 54.6501 19.2157H52.6198C52.5406 19.2144 52.4621 19.2292 52.3888 19.2591C52.3156 19.289 52.2493 19.3333 52.1939 19.3895C52.089 19.5006 52.0323 19.6484 52.0364 19.8008Z"/>
	<path fill="#09182C" d="M61.7619 23.999C61.4418 24.002 61.127 23.9179 60.8517 23.7557C60.5867 23.6015 60.3642 23.3846 60.2041 23.1243C60.0408 22.8509 59.956 22.5384 59.9591 22.2206V19.8223C59.956 19.5045 60.0408 19.1919 60.2041 18.9186C60.3629 18.6508 60.5878 18.4275 60.8576 18.2698C61.1328 18.1076 61.4477 18.0235 61.7678 18.0265H63.8798C64.2018 18.0224 64.5188 18.1066 64.7957 18.2698C65.0655 18.4275 65.2904 18.6508 65.4492 18.9186C65.6125 19.1919 65.6973 19.5045 65.6942 19.8223V22.2206C65.6991 22.5378 65.6163 22.8504 65.455 23.1243C65.2964 23.3937 65.0716 23.619 64.8016 23.7789C64.5246 23.9421 64.2077 24.0263 63.8856 24.0221L61.7619 23.999ZM61.1785 19.7991V22.1974C61.1772 22.276 61.1921 22.354 61.2222 22.4267C61.2523 22.4994 61.2969 22.5653 61.3535 22.6203C61.4089 22.6764 61.4753 22.7208 61.5485 22.7507C61.6217 22.7805 61.7002 22.7953 61.7794 22.7941H63.8914C63.9715 22.7961 64.0512 22.7817 64.1255 22.7518C64.1998 22.7219 64.2671 22.6771 64.3232 22.6203C64.3797 22.5653 64.4244 22.4994 64.4544 22.4267C64.4845 22.354 64.4994 22.276 64.4982 22.1974V19.7991C64.4994 19.7205 64.4845 19.6425 64.4544 19.5698C64.4244 19.4971 64.3797 19.4313 64.3232 19.3762C64.2671 19.3194 64.1998 19.2746 64.1255 19.2447C64.0512 19.2148 63.9715 19.2004 63.8914 19.2025H61.7794C61.7002 19.2012 61.6217 19.216 61.5485 19.2459C61.4753 19.2757 61.4089 19.3201 61.3535 19.3762C61.2938 19.4298 61.2459 19.4949 61.2127 19.5677C61.1796 19.6405 61.162 19.7193 61.161 19.7991H61.1785Z"/>
	<path fill="#09182C" d="M71.2426 24.0005V19.204H69.1772V18.0049H74.5098V19.204H72.4561V24.0005H71.2426Z"/>
	<path fill="#09182C" d="M79.8072 24.0006C79.4872 24.0037 79.1724 23.9195 78.8971 23.7573C78.6271 23.5974 78.4023 23.3722 78.2437 23.1027C78.0803 22.8294 77.9955 22.5168 77.9986 22.199V19.8008C77.9955 19.483 78.0803 19.1704 78.2437 18.8971C78.4025 18.6292 78.6274 18.4059 78.8971 18.2483C79.1724 18.086 79.4872 18.0019 79.8072 18.005H81.9193C82.2393 18.0019 82.5542 18.086 82.8294 18.2483C83.1021 18.4041 83.3293 18.6277 83.4887 18.8971C83.6521 19.1704 83.7368 19.483 83.7337 19.8008V22.199C83.7368 22.5168 83.6521 22.8294 83.4887 23.1027C83.3295 23.3737 83.1024 23.5992 82.8294 23.7573C82.5542 23.9195 82.2393 24.0037 81.9193 24.0006H79.8072ZM79.2238 19.8008V22.199C79.2238 22.3527 79.2853 22.5 79.3947 22.6086C79.5041 22.7173 79.6525 22.7783 79.8072 22.7783H81.9193C81.9984 22.7795 82.077 22.7648 82.1502 22.7349C82.2234 22.705 82.2897 22.6607 82.3451 22.6045C82.4027 22.55 82.4485 22.4844 82.4796 22.4117C82.5107 22.3389 82.5265 22.2606 82.526 22.1816V19.7834C82.5265 19.7044 82.5107 19.6261 82.4796 19.5534C82.4485 19.4806 82.4027 19.415 82.3451 19.3605C82.2897 19.3044 82.2234 19.26 82.1502 19.2301C82.077 19.2002 81.9984 19.1855 81.9193 19.1867H79.8072C79.6525 19.1867 79.5041 19.2477 79.3947 19.3564C79.2853 19.465 79.2238 19.6124 79.2238 19.766V19.8008Z"/>
	<path fill="#09182C" d="M89.638 24.0006C89.3206 24.0013 89.0062 23.9398 88.7128 23.8195C88.4194 23.6993 88.1528 23.5227 87.9284 23.2998C87.7039 23.077 87.526 22.8123 87.4049 22.521C87.2838 22.2296 87.2219 21.9174 87.2227 21.6023V20.4031C87.2219 20.088 87.2838 19.7758 87.4049 19.4845C87.526 19.1932 87.7039 18.9285 87.9284 18.7056C88.1528 18.4828 88.4194 18.3061 88.7128 18.1859C89.0062 18.0656 89.3206 18.0041 89.638 18.0049H92.2518V19.204H89.638C89.3182 19.2055 89.0119 19.3324 88.7857 19.5569C88.5596 19.7815 88.4319 20.0856 88.4303 20.4031V21.6023C88.4286 21.7599 88.4592 21.9162 88.5204 22.0616C88.5816 22.207 88.6721 22.3385 88.7862 22.448C88.897 22.5603 89.0297 22.649 89.1761 22.7088C89.3226 22.7686 89.4797 22.7981 89.638 22.7956H92.2518V24.0006H89.638Z"/>
	<path fill="#09182C" d="M97.5436 24.0006C97.2235 24.0037 96.9086 23.9195 96.6334 23.7573C96.3634 23.5974 96.1386 23.3722 95.9799 23.1027C95.8166 22.8294 95.7319 22.5168 95.7349 22.199V19.8008C95.7319 19.483 95.8166 19.1704 95.9799 18.8971C96.1387 18.6292 96.3636 18.4059 96.6334 18.2483C96.9086 18.086 97.2235 18.0019 97.5436 18.005H99.6614C99.9815 18.0019 100.296 18.086 100.572 18.2483C100.841 18.4059 101.066 18.6292 101.225 18.8971C101.388 19.1704 101.473 19.483 101.47 19.8008V22.199C101.473 22.5168 101.388 22.8294 101.225 23.1027C101.066 23.3722 100.842 23.5974 100.572 23.7573C100.296 23.9195 99.9815 24.0037 99.6614 24.0006H97.5436ZM96.9601 19.8008V22.199C96.9589 22.2776 96.9738 22.3556 97.0039 22.4283C97.034 22.501 97.0786 22.5669 97.1352 22.6219C97.1906 22.678 97.2569 22.7224 97.3301 22.7523C97.4033 22.7822 97.4819 22.7969 97.5611 22.7957H99.6789C99.7581 22.7969 99.8367 22.7822 99.9099 22.7523C99.9831 22.7224 100.049 22.678 100.105 22.6219C100.161 22.5669 100.206 22.501 100.236 22.4283C100.266 22.3556 100.281 22.2776 100.28 22.199V19.8008C100.281 19.7222 100.266 19.6442 100.236 19.5715C100.206 19.4988 100.161 19.4329 100.105 19.3779C100.049 19.3217 99.9831 19.2774 99.9099 19.2475C99.8367 19.2176 99.7581 19.2029 99.6789 19.2041H97.5436C97.4644 19.2029 97.3858 19.2176 97.3126 19.2475C97.2394 19.2774 97.1731 19.3217 97.1177 19.3779C97.0643 19.4343 97.0228 19.5008 96.9957 19.5735C96.9687 19.6461 96.9566 19.7234 96.9601 19.8008Z"/>
	<path fill="#09182C" d="M106.173 18.0049V22.7956H110V24.0005H105.572C105.42 23.9922 105.276 23.9285 105.168 23.8216C105.061 23.7147 104.997 23.5722 104.988 23.4213V18.0281L106.173 18.0049Z"/>
</g>
</svg>
