<svg width="578" height="134" viewBox="0 0 578 134" fill="none" xmlns="http://www.w3.org/2000/svg">
	<path fill-rule="evenodd" clip-rule="evenodd" d="M531.957 100.128V58.2163L566.063 97.7899C566.695 98.5266 567.482 99.1177 568.368 99.5216C569.255 99.9255 570.22 100.132 571.196 100.128C571.983 100.119 572.763 99.9705 573.497 99.6897C574.8 99.235 575.919 98.3734 576.684 97.2346C577.473 96.1234 577.886 94.7933 577.864 93.4351V33.49H564.44V75.3727L530.305 35.799C529.402 34.7698 528.205 34.0368 526.872 33.6975C525.539 33.3582 524.133 33.4286 522.841 33.8993C521.56 34.3787 520.458 35.2355 519.684 36.3543C518.877 37.4583 518.453 38.7912 518.474 40.1538V100.128H531.957ZM384.236 70.7545C387.29 72.5728 390.794 73.514 394.356 73.4727H415.539C416.424 73.4577 417.303 73.6238 418.12 73.9608C418.938 74.2977 419.676 74.7982 420.289 75.4309C421.217 76.3643 421.847 77.5479 422.1 78.8339C422.352 80.1199 422.217 81.4512 421.71 82.6613C421.203 83.8715 420.347 84.9067 419.25 85.6377C418.152 86.3686 416.862 86.7629 415.539 86.7711H375.179V100.128H415.687C419.249 100.169 422.753 99.2281 425.806 97.4098C428.817 95.649 431.333 93.1665 433.123 90.1907C434.919 87.1387 435.865 83.6693 435.865 80.1365C435.865 76.6038 434.919 73.1343 433.123 70.0824C431.344 67.0903 428.827 64.5959 425.806 62.834C422.753 61.0157 419.249 60.0746 415.687 60.1159H394.356C393.437 60.1763 392.516 60.0491 391.648 59.7422C390.781 59.4354 389.987 58.9555 389.314 58.3322C388.642 57.7088 388.106 56.9553 387.739 56.1184C387.373 55.2814 387.184 54.379 387.184 53.4667C387.184 52.5544 387.373 51.6519 387.739 50.815C388.106 49.978 388.642 49.2246 389.314 48.6012C389.987 47.9779 390.781 47.4979 391.648 47.1911C392.516 46.8843 393.437 46.7571 394.356 46.8175H433.595V33.4898H394.356C390.796 33.4398 387.293 34.3708 384.236 36.1788C381.216 37.9407 378.698 40.4351 376.92 43.4272C375.123 46.4791 374.177 49.9486 374.177 53.4813C374.177 57.0141 375.123 60.4835 376.92 63.5354C378.702 66.5168 381.22 69.0008 384.236 70.7545ZM239.7 100.129C237.908 100.129 236.19 99.4234 234.923 98.1682C233.656 96.913 232.944 95.2106 232.944 93.4355V40.1542C232.952 38.3842 233.667 36.6894 234.933 35.4405C236.2 34.1916 237.914 33.4904 239.7 33.4904H271.062C274.63 33.4441 278.143 34.3746 281.211 36.1794C284.237 37.934 286.757 40.4301 288.528 43.4278C290.363 46.4526 291.313 49.9236 291.272 53.4527C291.313 58.3961 289.457 63.1705 286.079 66.8095C287.73 68.5695 289.031 70.6219 289.914 72.8595C290.831 75.1774 291.292 77.6477 291.272 80.1371C291.308 83.6747 290.359 87.1537 288.528 90.1913C286.745 93.1726 284.228 95.6567 281.211 97.4104C278.145 99.224 274.633 100.164 271.062 100.129H239.7ZM246.427 46.8181V60.1165H271.062C271.945 60.1318 272.821 59.9686 273.638 59.637C274.454 59.3053 275.194 58.8121 275.812 58.1875C276.439 57.5684 276.937 56.8327 277.276 56.0227C277.616 55.2127 277.791 54.3443 277.791 53.4673C277.791 52.5902 277.616 51.7218 277.276 50.9118C276.937 50.1018 276.439 49.3661 275.812 48.747C275.194 48.1224 274.454 47.6293 273.638 47.2976C272.821 46.966 271.945 46.8028 271.062 46.8181H246.427ZM246.427 73.4733V86.7717H271.062C271.945 86.787 272.821 86.6238 273.638 86.2922C274.454 85.9605 275.194 85.4673 275.812 84.8427C276.75 83.9108 277.389 82.7245 277.647 81.4336C277.906 80.1426 277.772 78.8047 277.264 77.5887C276.756 76.3726 275.896 75.3329 274.792 74.6005C273.689 73.8681 272.39 73.4759 271.062 73.4733H246.427ZM320.865 100.129C317.294 100.165 313.782 99.2244 310.716 97.4109C307.72 95.6413 305.215 93.1602 303.429 90.1917C301.598 87.1542 300.649 83.6752 300.685 80.1376V53.4531C300.643 49.9241 301.594 46.4531 303.429 43.4282C305.206 40.4452 307.712 37.9527 310.716 36.1798C313.785 34.3751 317.297 33.4446 320.865 33.4909H344.467C348.036 33.4446 351.548 34.3751 354.617 36.1798C357.643 37.9345 360.162 40.4306 361.933 43.4282C363.769 46.4531 364.719 49.9241 364.677 53.4531V80.0206C364.713 83.5582 363.764 87.0372 361.933 90.0748C360.151 93.0562 357.633 95.5402 354.617 97.2939C351.55 99.1075 348.038 100.048 344.467 100.012L320.865 100.129ZM314.168 53.3654V80.0206C314.16 80.8941 314.328 81.7603 314.662 82.5687C314.995 83.3772 315.488 84.1117 316.112 84.7294C316.735 85.347 317.477 85.8354 318.293 86.166C319.109 86.4967 319.983 86.663 320.865 86.6552H344.467C345.35 86.6705 346.227 86.5073 347.043 86.1757C347.86 85.844 348.6 85.3508 349.217 84.7262C349.857 84.1199 350.364 83.3888 350.704 82.5788C351.044 81.7689 351.211 80.8978 351.194 80.0206V53.3362C351.194 52.4625 351.02 51.5973 350.682 50.7905C350.343 49.9836 349.847 49.2509 349.222 48.6345C348.597 48.018 347.856 47.53 347.04 47.1983C346.224 46.8666 345.349 46.6978 344.467 46.7016H320.865C319.983 46.6938 319.109 46.8601 318.293 47.1908C317.477 47.5214 316.735 48.0098 316.112 48.6274C315.488 49.2451 314.995 49.9796 314.662 50.7881C314.328 51.5965 314.16 52.4627 314.168 53.3362V53.3654ZM465.159 100.128C461.597 100.165 458.095 99.2244 455.039 97.4104C452.034 95.6417 449.52 93.161 447.723 90.1912C445.914 87.146 444.976 83.6704 445.009 80.1371V53.4526C444.972 49.9281 445.91 46.4609 447.723 43.4277C449.511 40.4435 452.027 37.9513 455.039 36.1794C458.097 34.3742 461.6 33.4434 465.159 33.4904H488.761C492.329 33.4471 495.84 34.3774 498.91 36.1794C501.923 37.9513 504.439 40.4435 506.227 43.4277C508.063 46.4526 509.013 49.9236 508.971 53.4526V80.0201C509.007 83.5578 508.058 87.0367 506.227 90.0743C504.43 93.044 501.915 95.5247 498.91 97.2934C495.843 99.1042 492.332 100.044 488.761 100.012L465.159 100.128ZM458.462 53.365V80.0201C458.452 80.8963 458.622 81.7653 458.962 82.5742C459.302 83.3832 459.804 84.1152 460.439 84.7257C461.05 85.3508 461.784 85.8447 462.596 86.1766C463.408 86.5085 464.281 86.6712 465.159 86.6547H488.761C489.643 86.6649 490.518 86.4995 491.334 86.1681C492.15 85.8368 492.891 85.3462 493.511 84.7257C494.151 84.1194 494.658 83.3883 494.998 82.5783C495.338 81.7684 495.505 80.8973 495.488 80.0201V53.3357C495.503 52.4588 495.336 51.5883 494.995 50.7786C494.655 49.9689 494.15 49.2375 493.511 48.6302C492.891 48.0097 492.15 47.5191 491.334 47.1877C490.518 46.8563 489.643 46.6909 488.761 46.7012H465.159C464.281 46.6847 463.408 46.8474 462.596 47.1792C461.784 47.5111 461.05 48.005 460.439 48.6302C459.812 49.2652 459.324 50.0209 459.004 50.8504C458.685 51.6799 458.54 52.5656 458.58 53.4526L458.462 53.365Z" fill="white"/>
	<path d="M29.1324 27.7886C36.2651 27.6123 43.3235 29.29 49.6325 32.6612C55.9414 36.0323 61.29 40.9843 65.1673 47.0438C66.4361 45.5354 67.5782 44.0593 68.847 42.6793C70.8392 40.7034 73.2256 39.1812 75.8468 38.2148C78.4679 37.2483 81.2633 36.86 84.045 37.0758C86.8266 37.2915 89.5303 38.1065 91.9752 39.4659C94.4201 40.8253 96.5495 42.6978 98.2206 44.9578C102.15 51.2253 105.344 57.9351 107.737 64.9511C109.507 69.7363 111.628 74.381 114.081 78.8469C114.499 79.7686 115.169 80.5497 116.012 81.0974C116.856 81.645 117.837 81.9361 118.839 81.9361C119.841 81.9361 120.822 81.645 121.666 81.0974C122.509 80.5497 123.18 79.7686 123.597 78.8469C125.654 75.0832 127.06 70.9914 127.753 66.7482C128.649 60.6995 130.558 54.8498 133.399 49.4506C137.404 42.294 143.362 36.4559 150.56 32.6345C156.717 29.2572 163.638 27.5647 170.639 27.7245V41.0426C153.637 41.8449 143.074 55.2593 143.455 67.2296C143.835 79.1999 154.335 91.5553 170.639 92.133V104.97C160.774 107.088 143.201 99.3215 135.302 86.581C133.683 89.3609 131.4 91.6846 128.662 93.3389C125.924 94.9931 122.819 95.9247 119.632 96.0482C107.991 96.9147 101.868 91.0097 98.1254 82.5374C94.763 74.9316 92.1302 67.0691 89.1167 59.367C88.4553 57.6495 87.6038 56.0131 86.5789 54.4891C83.8192 50.5739 79.0928 51.28 75.889 55.9333C72.9313 60.7187 71.1174 66.1359 70.5914 71.7546C69.2171 80.179 65.0433 87.877 58.7596 93.577C53.1198 99.1081 46.0491 102.913 38.3633 104.553C35.4449 105.162 32.3678 105.291 29.0689 105.676V91.9404C32.7225 92.0562 36.3601 91.4027 39.7511 90.0216C43.142 88.6406 46.2126 86.562 48.7678 83.9174C51.5179 81.4018 53.6326 78.2565 54.9351 74.7447C56.2375 71.2328 56.6897 67.4565 56.2539 63.7316C54.9216 53.5585 45.5637 41.7807 29.0054 40.9142L29.1324 27.7886Z" fill="#02F3A2"/>
	<path d="M185.909 13.8606V119.443H14.0282V13.8606H185.909ZM199.694 0.189453H0.243164V133.146H199.694V0.189453Z" fill="#02F3A2"/>
	<path d="M185.909 13.8677V119.504H14.0282V13.8677H185.909ZM199.694 0.189453H0.243164V133.215H199.694V0.189453Z" fill="#02F3A2"/>
	</svg>
	