<svg width="65" height="12" viewBox="0 0 65 12" fill="none" xmlns="http://www.w3.org/2000/svg">
<path fill-rule="evenodd" clip-rule="evenodd" d="M27.3902 2.12215C27.4281 2.19784 27.4661 2.23569 27.4851 2.27354C28.4158 3.54148 29.3464 4.80942 30.277 6.07735C30.353 6.1909 30.448 6.1909 30.5429 6.15305C31.6825 5.77456 32.1193 4.75264 31.9104 3.73072C31.7015 2.7088 30.8658 2.17892 29.9731 2.12215C29.1945 2.06537 28.3968 2.10322 27.5991 2.0843C27.5421 2.0843 27.4851 2.10322 27.3902 2.12215ZM34.5503 11.8872C33.8666 11.8872 33.2019 11.8872 32.5561 11.8872C32.4802 11.8872 32.3852 11.8115 32.3282 11.7358C31.1507 10.1083 29.9731 8.48076 28.7956 6.83433C27.9789 5.69886 27.1433 4.54447 26.3266 3.40901C26.2886 3.35223 26.2506 3.31438 26.1746 3.20084C26.1556 3.35223 26.1556 3.44686 26.1556 3.54148C26.1556 6.20982 26.1556 8.87817 26.1556 11.5465C26.1556 11.6222 26.1746 11.6979 26.1556 11.7547C26.1367 11.8115 26.0607 11.8872 26.0227 11.8872C25.5289 11.9061 25.0351 11.8872 24.5223 11.8872C24.5223 11.8115 24.5033 11.7358 24.5033 11.6601C24.5033 7.98872 24.5033 4.3363 24.5033 0.664963C24.5033 0.475719 24.5603 0.418945 24.7312 0.418945C26.4785 0.43787 28.2258 0.400021 29.9542 0.43787C31.6635 0.475719 33.2019 1.59226 33.5437 3.44686C33.8476 5.11221 33.1639 6.79648 31.5685 7.55346C31.5305 7.57238 31.4925 7.59131 31.4356 7.62916C32.4802 9.04849 33.5058 10.4489 34.5503 11.8872Z" fill="#df3a93"/>
<path fill-rule="evenodd" clip-rule="evenodd" d="M48.0538 5.46916H50.276C49.8961 4.75004 49.5353 4.06876 49.1554 3.34963C48.7945 4.08768 48.4337 4.75004 48.0538 5.46916ZM52.726 10.1814C52.688 10.1057 52.669 10.03 52.631 9.97318C52.1752 9.08373 51.7004 8.21321 51.2446 7.32376C51.1876 7.21021 51.1116 7.15344 50.9787 7.15344C49.7632 7.15344 48.5666 7.15344 47.3511 7.15344C47.2182 7.15344 47.1422 7.19129 47.0662 7.32376C46.6104 8.21321 46.1546 9.08373 45.6798 9.97318C45.6418 10.03 45.6228 10.0867 45.6038 10.1624H52.726V10.1814ZM55.4799 11.8846H42.9069C44.996 7.92934 47.0852 3.97413 49.1934 0C51.2826 3.95521 53.3717 7.91042 55.4799 11.8846Z" fill="#df3a93"/>
<path fill-rule="evenodd" clip-rule="evenodd" d="M11.6071 6.13358C11.6261 8.48021 13.4684 10.2591 15.6336 10.3348C18.0266 10.4105 19.8879 8.49914 19.9449 6.26605C20.0018 3.93834 18.1596 1.95128 15.7855 1.93235C13.5064 1.91343 11.6261 3.80587 11.6071 6.13358ZM15.7855 0.267002C18.9572 0.229153 21.6352 2.87858 21.6162 6.13358C21.6162 9.36966 18.9762 12.0191 15.7665 12.0002C12.5378 12.0002 9.93579 9.33181 9.93579 6.13358C9.95478 2.91642 12.5758 0.229153 15.7855 0.267002Z" fill="#df3a93"/>
<path fill-rule="evenodd" clip-rule="evenodd" d="M1.69315 11.8639H0.0407988V6.28118C0.116769 6.28118 0.192739 6.28118 0.268709 6.28118C1.54121 6.28118 2.81371 6.28118 4.08621 6.28118C4.65598 6.28118 5.18778 6.09193 5.6246 5.69452C6.59322 4.824 6.49826 2.78016 4.84591 2.25027C4.50404 2.13672 4.12419 2.09888 3.76334 2.09888C2.62378 2.07995 1.48423 2.09888 0.344679 2.09888C-0.0541639 2.09888 0.00281371 2.13672 0.00281371 1.75824C0.00281371 1.37975 0.00281371 1.02018 0.00281371 0.641693C0.00281371 0.490298 0.0407988 0.433524 0.192739 0.433524C1.59819 0.433524 2.98464 0.376751 4.3711 0.452449C6.06143 0.547071 7.58083 1.64469 7.86572 3.55606C8.1886 5.5999 7.01106 7.45449 4.88389 7.85191C4.58001 7.90868 4.25714 7.9276 3.95326 7.9276C3.26953 7.94653 2.60479 7.9276 1.92106 7.9276C1.75013 7.9276 1.69315 7.98438 1.69315 8.1547C1.69315 9.29016 1.69315 10.4446 1.69315 11.58C1.69315 11.6936 1.69315 11.7693 1.69315 11.8639Z" fill="#df3a93"/>
<path fill-rule="evenodd" clip-rule="evenodd" d="M38.5198 11.8839V11.5811C38.5198 8.51531 38.5198 5.46847 38.5198 2.40271C38.5198 2.09992 38.5198 2.09992 38.2159 2.09992C37.3233 2.09992 36.4306 2.09992 35.538 2.09992C35.367 2.09992 35.3101 2.06207 35.3101 1.87283C35.3291 1.47541 35.3291 1.078 35.3101 0.680588C35.3101 0.491344 35.367 0.43457 35.557 0.43457C37.1333 0.43457 38.7097 0.43457 40.2861 0.43457C41.2357 0.43457 42.1854 0.43457 43.135 0.43457C43.3249 0.43457 43.3819 0.491344 43.3819 0.680588C43.3629 1.078 43.3629 1.49434 43.3819 1.89175C43.3819 2.06207 43.3249 2.09992 43.173 2.09992C42.2803 2.09992 41.3687 2.09992 40.476 2.09992C40.1721 2.09992 40.1721 2.09992 40.1721 2.40271C40.1721 5.44955 40.1721 8.51531 40.1721 11.5621C40.1721 11.6378 40.1911 11.6946 40.1721 11.7703C40.1532 11.8271 40.0962 11.9028 40.0392 11.9028C39.5644 11.8839 39.0706 11.8839 38.5198 11.8839Z" fill="#df3a93"/>
<path fill-rule="evenodd" clip-rule="evenodd" d="M64.6154 10.1989V11.8642H57.3602C57.3602 11.7885 57.3602 11.7128 57.3602 11.6371C57.3602 7.98471 57.3602 4.31337 57.3602 0.660947C57.3602 0.471703 57.4172 0.396005 57.6071 0.414929C58.006 0.433854 58.4048 0.433854 58.7847 0.414929C58.9936 0.414929 59.0316 0.471703 59.0316 0.660947C59.0316 3.72671 59.0316 6.81139 59.0316 9.87715C59.0316 10.1989 59.0316 10.1989 59.3355 10.1989C61.0068 10.1989 62.6971 10.1989 64.3685 10.1989C64.4444 10.1989 64.5394 10.1989 64.6154 10.1989Z" fill="#df3a93"/>
</svg>
