<svg width="682" height="131" viewBox="0 0 682 131" fill="none" xmlns="http://www.w3.org/2000/svg">
<path d="M20.0319 0.854191H140.091C142.96 0.860877 145.782 1.58184 148.301 2.95183C150.82 4.32182 152.958 6.29758 154.52 8.7003L156.942 12.4235C158.736 15.1807 159.701 18.3935 159.723 21.6816C159.746 24.9696 158.825 28.1952 157.068 30.9766L108.202 108.47C107.668 109.313 106.93 110.007 106.055 110.488C105.18 110.97 104.198 111.222 103.199 111.222C102.201 111.222 101.219 110.97 100.344 110.488C99.4693 110.007 98.7307 109.313 98.197 108.47L82.189 83.0596C81.7158 82.3118 81.4532 81.4504 81.4287 80.5661C81.4042 79.6818 81.6187 78.8073 82.0498 78.0345C82.4809 77.2617 83.1126 76.6192 83.8784 76.1746C84.6442 75.73 85.5158 75.4997 86.4016 75.508H96.0485C98.7114 75.5111 101.331 74.8391 103.663 73.5552C105.995 72.2712 107.963 70.4172 109.382 68.1667L135.352 27.2744C135.729 26.6795 135.939 25.9944 135.961 25.2908C135.982 24.5871 135.814 23.8905 135.474 23.2738C135.134 22.6571 134.635 22.1428 134.028 21.7846C133.421 21.4263 132.729 21.2373 132.024 21.2373H24.6026C23.7867 21.2404 22.9843 21.4457 22.2674 21.8349C21.5505 22.2241 20.9416 22.7849 20.4953 23.467L14.724 32.1125C14.1874 32.9417 13.4512 33.6234 12.5829 34.0955C11.7146 34.5676 10.7417 34.8149 9.75309 34.8149C8.76445 34.8149 7.79157 34.5676 6.92325 34.0955C6.05494 33.6234 5.31888 32.9417 4.78224 32.1125L3.58162 30.2403C1.79511 27.4429 0.85651 24.1894 0.878933 20.8716C0.901355 17.5537 1.88383 14.3131 3.708 11.5401L5.60366 8.6372C7.17172 6.24483 9.31207 4.28045 11.8312 2.92157C14.3503 1.56268 17.1688 0.852137 20.0319 0.854191Z" fill="#0D161A"/>
<path d="M102.346 45.6264L98.5759 51.2007C97.2262 53.2097 95.4017 54.8557 93.2636 55.993C91.1255 57.1304 88.7397 57.7241 86.3172 57.7216H51.542C50.9118 57.719 50.2925 57.8855 49.7489 58.2037C49.2052 58.5219 48.7571 58.9801 48.4514 59.5305C48.1458 60.0808 47.9937 60.7031 48.0113 61.3322C48.0288 61.9613 48.2152 62.5741 48.5511 63.1066L86.0855 122.615C86.5532 123.363 86.8113 124.222 86.8329 125.103C86.8546 125.984 86.639 126.855 86.2085 127.624C85.7781 128.394 85.1486 129.034 84.386 129.477C83.6233 129.921 82.7554 130.152 81.8729 130.146H73.0475C71.0496 130.145 69.0844 129.639 67.335 128.675C65.5856 127.712 64.109 126.322 63.0425 124.634L20.9163 57.8268L28.2462 47.0358C29.8297 44.7096 31.9587 42.8054 34.4478 41.4892C36.9369 40.173 39.7105 39.4846 42.527 39.4841H99.0814C99.7975 39.4831 100.5 39.6771 101.114 40.0453C101.728 40.4134 102.23 40.9417 102.566 41.5734C102.902 42.2051 103.059 42.9162 103.02 43.6304C102.981 44.3445 102.748 45.0346 102.346 45.6264Z" fill="#0D161A"/>
<path fill-rule="evenodd" clip-rule="evenodd" d="M309.461 95.2923L308.998 96.0917C307.641 98.651 305.646 100.817 303.205 102.381C300.571 103.872 297.574 104.6 294.548 104.485C291.926 104.53 289.326 103.984 286.945 102.886C284.641 101.797 282.66 100.13 281.194 98.048C279.452 95.4967 278.202 92.6432 277.508 89.6339C276.579 85.7278 276.141 81.7213 276.202 77.707V72.385C276.126 68.2809 276.557 64.183 277.487 60.1847C278.162 57.2082 279.415 54.3926 281.173 51.8968C282.653 49.8421 284.651 48.2162 286.966 47.1849C289.371 46.1475 291.97 45.6313 294.59 45.6704C297.599 45.5767 300.57 46.3587 303.142 47.9212C305.557 49.512 307.533 51.6815 308.892 54.2317L309.398 55.1152V22.7421H314.727V103.307H309.756L309.461 95.2923ZM300.467 98.6159C301.834 98.1999 303.122 97.5602 304.279 96.7227C305.428 95.9153 306.438 94.928 307.271 93.7989C308.085 92.6839 308.79 91.4935 309.377 90.2439V60.4161C308.839 59.1208 308.175 57.8809 307.397 56.7138C306.614 55.5433 305.655 54.5003 304.553 53.6217C303.401 52.7242 302.115 52.0143 300.741 51.5182C299.135 50.9667 297.447 50.6963 295.749 50.7188C293.643 50.5709 291.536 50.986 289.644 51.9214C287.753 52.8567 286.145 54.2787 284.986 56.0407C282.774 59.5326 281.637 65.0017 281.637 72.3009V77.6859C281.637 85.0272 282.879 90.5174 284.986 93.9882C286.142 95.7414 287.744 97.1563 289.628 98.0877C291.512 99.0192 293.61 99.4338 295.707 99.289C297.319 99.3062 298.923 99.0793 300.467 98.6159Z" fill="#0D161A"/>
<path fill-rule="evenodd" clip-rule="evenodd" d="M261.441 99.6466C262.383 98.8177 263.237 97.8943 263.99 96.891L261.252 93.3782C259.648 95.2835 257.651 96.8192 255.396 97.8797C252.931 98.9446 250.267 99.4683 247.582 99.4153C245.301 99.446 243.037 99.0167 240.926 98.1531C238.911 97.3097 237.132 95.9884 235.744 94.3037C234.207 92.3914 233.075 90.1872 232.416 87.8249C231.582 84.8477 231.185 81.7656 231.237 78.6746V75.1827H265.232V70.4919C265.232 62.0778 263.611 55.7673 260.388 51.5602C258.691 49.5012 256.529 47.8743 254.079 46.8137C251.629 45.7531 248.962 45.2891 246.297 45.4601C243.641 45.4531 241.008 45.9603 238.546 46.9535C236.054 47.9735 233.844 49.5749 232.1 51.6233C230.084 54.0521 228.566 56.8541 227.635 59.8691C226.433 63.8218 225.864 67.9395 225.95 72.0695V78.5694C225.874 82.4359 226.407 86.2904 227.53 89.9915C228.421 92.9216 229.921 95.6311 231.932 97.9428C233.792 100.007 236.106 101.613 238.693 102.634C241.444 103.676 244.366 104.197 247.308 104.169C249.276 104.186 251.241 103.982 253.163 103.559C254.783 103.205 256.354 102.654 257.839 101.918C259.128 101.31 260.337 100.547 261.441 99.6466ZM231.3 70.0291C231.364 67.0214 231.832 64.0359 232.69 61.1523C233.332 58.9549 234.398 56.9041 235.828 55.1152C237.066 53.6076 238.658 52.4296 240.462 51.6865C242.32 50.9581 244.301 50.5939 246.297 50.6137C248.343 50.5747 250.372 50.9915 252.237 51.8337C253.923 52.629 255.374 53.8464 256.449 55.3676C257.625 57.0765 258.475 58.9877 258.956 61.005C259.557 63.4569 259.875 65.9694 259.904 68.4936V70.3026H231.279L231.3 70.0291Z" fill="#0D161A"/>
<path d="M210.505 52.2544C212.015 51.6062 213.644 51.2837 215.287 51.3078C215.939 51.2624 216.593 51.2624 217.246 51.3078L218.72 51.5182L218.825 46.1332C218.402 45.9479 217.956 45.8206 217.498 45.7545C216.855 45.6151 216.198 45.5446 215.54 45.5442C212.744 45.458 210.004 46.3426 207.788 48.0474C205.543 49.9121 203.787 52.2945 202.67 54.989L202.186 56.1249V46.5959H196.814V103.202H202.143V64.1393C202.549 62.3446 203.156 60.6015 203.955 58.9436C204.663 57.4584 205.594 56.0895 206.714 54.8838C207.793 53.7669 209.081 52.8734 210.505 52.2544Z" fill="#0D161A"/>
<path fill-rule="evenodd" clip-rule="evenodd" d="M363.829 99.6467C364.772 98.8124 365.633 97.8896 366.399 96.891L363.661 93.3782C362.053 95.2787 360.056 96.8136 357.805 97.8797C355.334 98.9469 352.662 99.4706 349.97 99.4153C347.689 99.4437 345.426 99.0145 343.314 98.1531C341.315 97.3307 339.545 96.0391 338.153 94.3879C336.631 92.4691 335.507 90.2666 334.846 87.909C334.013 84.9319 333.615 81.8497 333.667 78.7587V75.2669H367.642V70.576C367.642 62.162 366.02 55.8514 362.818 51.6444C361.115 49.5932 358.951 47.9719 356.503 46.912C354.055 45.8521 351.391 45.3835 348.727 45.5442C346.071 45.5373 343.439 46.0445 340.976 47.0377C338.479 48.0467 336.266 49.6498 334.531 51.7075C332.507 54.1348 330.982 56.9369 330.044 59.9533C328.862 63.9098 328.3 68.0254 328.38 72.1537V78.6536C328.308 82.5183 328.834 86.371 329.939 90.0756C330.837 93.0073 332.344 95.7167 334.362 98.0269C336.214 100.091 338.522 101.697 341.102 102.718C343.86 103.76 346.789 104.281 349.738 104.253C351.707 104.269 353.671 104.065 355.594 103.643C357.213 103.289 358.784 102.738 360.27 102.003C361.549 101.367 362.744 100.575 363.829 99.6467ZM333.688 69.945C333.762 66.9382 334.229 63.9539 335.078 61.0682C335.72 58.8708 336.787 56.8199 338.217 55.031C339.462 53.5226 341.061 52.3448 342.871 51.6023C344.729 50.8719 346.71 50.5076 348.706 50.5295C350.745 50.4908 352.767 50.9077 354.625 51.7496C356.313 52.5415 357.765 53.7596 358.837 55.2835C359.996 56.9994 360.838 58.9086 361.323 60.9209C361.931 63.3718 362.257 65.8844 362.292 68.4094V70.2184H333.688V69.945Z" fill="#0D161A"/>
<path fill-rule="evenodd" clip-rule="evenodd" d="M415.94 96.891C415.187 97.8943 414.333 98.8177 413.391 99.6466C412.288 100.547 411.078 101.31 409.79 101.918C408.305 102.657 406.734 103.208 405.114 103.559C403.191 103.982 401.227 104.186 399.258 104.169C396.316 104.197 393.394 103.676 390.643 102.634C388.059 101.608 385.746 100.003 383.882 97.9428C381.875 95.6282 380.376 92.9197 379.48 89.9915C378.357 86.2904 377.824 82.4359 377.9 78.5694V72.0695C377.814 67.9395 378.383 63.8218 379.585 59.8691C380.516 56.8541 382.034 54.0521 384.051 51.6233C385.795 49.5749 388.005 47.9735 390.496 46.9535C392.959 45.9603 395.591 45.4531 398.247 45.4601C400.912 45.2891 403.579 45.7531 406.029 46.8137C408.479 47.8743 410.641 49.5012 412.338 51.5602C415.561 55.7673 417.183 62.0778 417.183 70.4919V75.1827H383.187V78.6746C383.135 81.7656 383.533 84.8477 384.366 87.8249C385.025 90.1872 386.157 92.3914 387.694 94.3037C389.083 95.9884 390.861 97.3097 392.876 98.1531C394.987 99.0167 397.251 99.446 399.532 99.4153C402.217 99.4683 404.882 98.9446 407.346 97.8797C409.601 96.8192 411.598 95.2835 413.202 93.3782L415.94 96.891ZM384.64 61.1523C383.782 64.0359 383.314 67.0214 383.25 70.0291L383.229 70.3026H411.854V68.4936C411.825 65.9694 411.507 63.4569 410.906 61.005C410.425 58.9877 409.576 57.0765 408.399 55.3676C407.324 53.8464 405.873 52.629 404.187 51.8337C402.322 50.9915 400.293 50.5747 398.247 50.6137C396.251 50.5939 394.27 50.9581 392.413 51.6865C390.608 52.4296 389.016 53.6076 387.779 55.1152C386.349 56.9041 385.283 58.9549 384.64 61.1523Z" fill="#0D161A"/>
<path d="M469.816 55.6411C470.984 54.2193 472.414 53.034 474.028 52.1492C475.792 51.2109 477.759 50.7197 479.757 50.7189C481.357 50.7024 482.949 50.9366 484.475 51.413C485.938 51.8955 487.237 52.7771 488.225 53.9583C489.364 55.3693 490.176 57.0142 490.605 58.7753C491.204 61.2322 491.48 63.7567 491.426 66.2849V103.307H496.776V66.348C496.83 63.1677 496.476 59.9937 495.723 56.9032C495.161 54.5802 494.129 52.3968 492.69 50.4875C491.417 48.863 489.739 47.6009 487.824 46.8273C485.724 46.013 483.485 45.613 481.232 45.6494C479.468 45.6386 477.713 45.9012 476.029 46.4277C474.465 46.9236 472.977 47.6314 471.606 48.5312C470.245 49.4344 469.024 50.533 467.983 51.7916C466.92 53.0907 466.002 54.5013 465.245 55.9987L464.95 56.5666L464.76 55.9566C463.944 52.7996 462.062 50.0207 459.431 48.0895C456.779 46.4628 453.724 45.6104 450.612 45.629C447.5 45.6476 444.455 46.5363 441.823 48.1946C439.247 49.98 437.126 52.3429 435.63 55.0942L435.167 55.9566L434.977 46.6801H429.901V103.286H435.251V63.8869C435.673 62.1974 436.266 60.5552 437.02 58.9857C437.727 57.4498 438.664 56.031 439.801 54.7786C440.925 53.5787 442.26 52.5948 443.739 51.8758C445.366 51.1133 447.145 50.7319 448.942 50.7609C450.553 50.7437 452.156 50.9998 453.681 51.5182C455.119 52.0293 456.402 52.8981 457.409 54.0424C458.524 55.4135 459.336 57.0051 459.79 58.7122C460.386 61.0481 460.662 63.4541 460.611 65.8642V103.349H466.003V65.4855C466.174 63.7263 466.563 61.9952 467.162 60.3319C467.782 58.6333 468.679 57.0484 469.816 55.6411Z" fill="#0D161A"/>
<path fill-rule="evenodd" clip-rule="evenodd" d="M548.104 96.891C547.345 97.8893 546.491 98.8121 545.555 99.6466C544.452 100.547 543.242 101.31 541.953 101.918C540.467 102.654 538.897 103.205 537.277 103.559C535.355 103.982 533.39 104.186 531.422 104.169C528.48 104.197 525.558 103.676 522.807 102.634C520.223 101.608 517.91 100.003 516.046 97.9428C514.039 95.6282 512.539 92.9197 511.644 89.9915C510.521 86.2904 509.988 82.4359 510.064 78.5694V72.0695C509.978 67.9395 510.547 63.8218 511.749 59.8691C512.68 56.8541 514.197 54.0521 516.214 51.6233C517.958 49.5749 520.168 47.9735 522.66 46.9535C525.122 45.9603 527.755 45.4531 530.411 45.4601C533.076 45.2891 535.743 45.7531 538.193 46.8137C540.643 47.8743 542.805 49.5012 544.502 51.5602C547.725 55.7673 549.346 62.0778 549.346 70.4919V75.1827H515.351V78.6746C515.299 81.7656 515.696 84.8477 516.53 87.8249C517.189 90.1872 518.321 92.3914 519.858 94.3037C521.246 95.9884 523.025 97.3097 525.04 98.1531C527.151 99.0167 529.415 99.446 531.696 99.4153C534.38 99.4683 537.045 98.9446 539.51 97.8797C541.765 96.8192 543.762 95.2835 545.366 93.3782L548.104 96.891ZM516.804 61.0681C515.945 63.9518 515.478 66.9373 515.414 69.945L515.393 70.2184H544.017V68.4094C543.989 65.8853 543.671 63.3727 543.07 60.9209C542.589 58.9036 541.739 56.9923 540.563 55.2835C539.488 53.7623 538.037 52.5448 536.351 51.7496C534.486 50.9073 532.457 50.4905 530.411 50.5295C528.415 50.5097 526.434 50.874 524.576 51.6023C522.772 52.3455 521.18 53.5234 519.942 55.031C518.512 56.8199 517.446 58.8708 516.804 61.0681Z" fill="#0D161A"/>
<path d="M592.436 96.6176L592.899 95.8393L593.025 103.307H598.207V46.7011H592.815V88.3297C592.372 89.8726 591.742 91.356 590.94 92.7471C590.176 94.067 589.185 95.242 588.012 96.2179C586.758 97.224 585.33 97.9938 583.8 98.4897C582.022 99.0474 580.166 99.3173 578.302 99.289C576.857 99.3002 575.425 99.0212 574.09 98.4687C572.7 97.887 571.487 96.9513 570.572 95.7551C569.45 94.2711 568.64 92.5752 568.192 90.7698C567.574 88.273 567.29 85.7053 567.35 83.134V46.7011H562.105V83.0289C562.043 86.3589 562.418 89.6827 563.221 92.9154C563.825 95.2981 564.899 97.5365 566.381 99.4994C567.647 101.136 569.326 102.406 571.246 103.181C573.255 103.981 575.402 104.381 577.565 104.359C580.695 104.449 583.795 103.724 586.559 102.255C588.965 100.904 590.987 98.9638 592.436 96.6176Z" fill="#0D161A"/>
<path d="M658.366 52.1492C656.747 53.027 655.315 54.2133 654.153 55.6411C652.965 57.0347 652.025 58.6212 651.373 60.3319C650.771 61.993 650.389 63.7255 650.236 65.4855V103.349H644.844V65.8642C644.889 63.453 644.605 61.0469 644.001 58.7122C643.565 56.9984 642.752 55.4032 641.621 54.0424C640.617 52.8939 639.333 52.0242 637.893 51.5182C636.367 50.9998 634.765 50.7437 633.154 50.7609C631.363 50.7299 629.59 51.1114 627.972 51.8758C626.486 52.5841 625.149 53.5694 624.033 54.7786C622.89 56.0302 621.945 57.4489 621.232 58.9857C620.486 60.5589 619.893 62.2002 619.462 63.8869V103.307H614.133V46.7011H619.168L619.336 55.9776L619.821 55.1152C621.309 52.3649 623.423 50.0017 625.992 48.2157C628.628 46.5579 631.676 45.6695 634.792 45.6509C637.907 45.6324 640.966 46.4843 643.622 48.1105C646.311 50.0046 648.249 52.7814 649.098 55.9566L649.288 56.5666L649.583 55.9987C650.34 54.5013 651.258 53.0907 652.321 51.7916C653.362 50.533 654.582 49.4344 655.944 48.5312C657.317 47.6352 658.805 46.9277 660.367 46.4277C662.051 45.9041 663.806 45.6417 665.569 45.6494C667.823 45.613 670.062 46.013 672.162 46.8273C674.08 47.5956 675.759 48.8587 677.028 50.4875C678.475 52.3918 679.508 54.577 680.061 56.9032C680.825 59.9918 681.179 63.1672 681.114 66.348V103.307H675.785V66.2849C675.833 63.7557 675.55 61.2311 674.943 58.7753C674.514 57.0142 673.701 55.3693 672.562 53.9583C671.583 52.7778 670.291 51.8959 668.834 51.413C667.3 50.9365 665.701 50.7023 664.095 50.7189C662.097 50.7231 660.131 51.2141 658.366 52.1492Z" fill="#0D161A"/>
</svg>
